<mxfile host="app.diagrams.net" modified="2024-05-12T21:04:35.550Z" agent="Mozilla/5.0 (Windows NT 10.0; Win64; x64) AppleWebKit/537.36 (KHTML, like Gecko) Chrome/124.0.0.0 Safari/537.36" etag="enaFg56GQqECLkB5R9IC" version="24.4.0" type="device">
  <diagram name="PÃ¡gina-1" id="qx649qpRaKz_2Wengayv">
    <mxGraphModel dx="1290" dy="653" grid="1" gridSize="10" guides="1" tooltips="1" connect="1" arrows="1" fold="1" page="1" pageScale="1" pageWidth="827" pageHeight="1169" math="0" shadow="0">
      <root>
        <mxCell id="0" />
        <mxCell id="1" parent="0" />
        <mxCell id="4WAHKactAMCXxuzaxDmH-6" style="edgeStyle=orthogonalEdgeStyle;rounded=0;orthogonalLoop=1;jettySize=auto;html=1;exitX=0.5;exitY=1;exitDx=0;exitDy=0;entryX=0.5;entryY=0;entryDx=0;entryDy=0;" edge="1" parent="1" source="4WAHKactAMCXxuzaxDmH-1" target="4WAHKactAMCXxuzaxDmH-2">
          <mxGeometry relative="1" as="geometry" />
        </mxCell>
        <mxCell id="4WAHKactAMCXxuzaxDmH-1" value="Algoritmo Practico 1 ejer 15" style="ellipse;whiteSpace=wrap;html=1;" vertex="1" parent="1">
          <mxGeometry x="330" y="40" width="166" height="80" as="geometry" />
        </mxCell>
        <mxCell id="4WAHKactAMCXxuzaxDmH-7" style="edgeStyle=orthogonalEdgeStyle;rounded=0;orthogonalLoop=1;jettySize=auto;html=1;exitX=0.5;exitY=1;exitDx=0;exitDy=0;entryX=0.5;entryY=0;entryDx=0;entryDy=0;" edge="1" parent="1" source="4WAHKactAMCXxuzaxDmH-2" target="4WAHKactAMCXxuzaxDmH-5">
          <mxGeometry relative="1" as="geometry" />
        </mxCell>
        <mxCell id="4WAHKactAMCXxuzaxDmH-2" value="entrada a , b , c" style="rounded=0;whiteSpace=wrap;html=1;" vertex="1" parent="1">
          <mxGeometry x="353" y="140" width="120" height="60" as="geometry" />
        </mxCell>
        <mxCell id="4WAHKactAMCXxuzaxDmH-13" style="edgeStyle=orthogonalEdgeStyle;rounded=0;orthogonalLoop=1;jettySize=auto;html=1;exitX=0.5;exitY=1;exitDx=0;exitDy=0;entryX=0.5;entryY=0;entryDx=0;entryDy=0;" edge="1" parent="1" source="4WAHKactAMCXxuzaxDmH-3" target="4WAHKactAMCXxuzaxDmH-10">
          <mxGeometry relative="1" as="geometry" />
        </mxCell>
        <mxCell id="4WAHKactAMCXxuzaxDmH-3" value="definir c1 =&amp;nbsp; b" style="rounded=0;whiteSpace=wrap;html=1;" vertex="1" parent="1">
          <mxGeometry x="350" y="390" width="120" height="60" as="geometry" />
        </mxCell>
        <mxCell id="4WAHKactAMCXxuzaxDmH-9" style="edgeStyle=orthogonalEdgeStyle;rounded=0;orthogonalLoop=1;jettySize=auto;html=1;exitX=0.5;exitY=1;exitDx=0;exitDy=0;entryX=0.5;entryY=0;entryDx=0;entryDy=0;" edge="1" parent="1" source="4WAHKactAMCXxuzaxDmH-4" target="4WAHKactAMCXxuzaxDmH-3">
          <mxGeometry relative="1" as="geometry" />
        </mxCell>
        <mxCell id="4WAHKactAMCXxuzaxDmH-4" value="definir b1 = a" style="rounded=0;whiteSpace=wrap;html=1;" vertex="1" parent="1">
          <mxGeometry x="350" y="310" width="120" height="60" as="geometry" />
        </mxCell>
        <mxCell id="4WAHKactAMCXxuzaxDmH-8" style="edgeStyle=orthogonalEdgeStyle;rounded=0;orthogonalLoop=1;jettySize=auto;html=1;exitX=0.5;exitY=1;exitDx=0;exitDy=0;" edge="1" parent="1" source="4WAHKactAMCXxuzaxDmH-5" target="4WAHKactAMCXxuzaxDmH-4">
          <mxGeometry relative="1" as="geometry" />
        </mxCell>
        <mxCell id="4WAHKactAMCXxuzaxDmH-5" value="definir a1 = c" style="rounded=0;whiteSpace=wrap;html=1;" vertex="1" parent="1">
          <mxGeometry x="353" y="220" width="120" height="60" as="geometry" />
        </mxCell>
        <mxCell id="4WAHKactAMCXxuzaxDmH-10" value="mostrar&amp;nbsp;&lt;span style=&quot;font-family: Consolas, &amp;quot;Courier New&amp;quot;, monospace; font-size: 14px; white-space: pre; color: rgb(163, 21, 21);&quot;&gt;&quot;Los valores son: a = &quot;&lt;/span&gt;&lt;span style=&quot;background-color: rgb(255, 255, 255); color: rgb(59, 59, 59); font-family: Consolas, &amp;quot;Courier New&amp;quot;, monospace; font-size: 14px; white-space: pre;&quot;&gt; &lt;/span&gt;&lt;span style=&quot;font-family: Consolas, &amp;quot;Courier New&amp;quot;, monospace; font-size: 14px; white-space: pre; background-color: rgb(251, 251, 251);&quot;&gt;,&lt;/span&gt;&lt;span style=&quot;background-color: rgb(255, 255, 255); color: rgb(59, 59, 59); font-family: Consolas, &amp;quot;Courier New&amp;quot;, monospace; font-size: 14px; white-space: pre;&quot;&gt; a &lt;/span&gt;&lt;span style=&quot;font-family: Consolas, &amp;quot;Courier New&amp;quot;, monospace; font-size: 14px; white-space: pre; background-color: rgb(251, 251, 251);&quot;&gt;,&lt;/span&gt;&lt;span style=&quot;background-color: rgb(255, 255, 255); color: rgb(59, 59, 59); font-family: Consolas, &amp;quot;Courier New&amp;quot;, monospace; font-size: 14px; white-space: pre;&quot;&gt; &lt;/span&gt;&lt;span style=&quot;font-family: Consolas, &amp;quot;Courier New&amp;quot;, monospace; font-size: 14px; white-space: pre; color: rgb(163, 21, 21);&quot;&gt;&quot; b = &quot;&lt;/span&gt;&lt;span style=&quot;background-color: rgb(255, 255, 255); color: rgb(59, 59, 59); font-family: Consolas, &amp;quot;Courier New&amp;quot;, monospace; font-size: 14px; white-space: pre;&quot;&gt; &lt;/span&gt;&lt;span style=&quot;font-family: Consolas, &amp;quot;Courier New&amp;quot;, monospace; font-size: 14px; white-space: pre; background-color: rgb(251, 251, 251);&quot;&gt;,&lt;/span&gt;&lt;span style=&quot;background-color: rgb(255, 255, 255); color: rgb(59, 59, 59); font-family: Consolas, &amp;quot;Courier New&amp;quot;, monospace; font-size: 14px; white-space: pre;&quot;&gt; b &lt;/span&gt;&lt;span style=&quot;font-family: Consolas, &amp;quot;Courier New&amp;quot;, monospace; font-size: 14px; white-space: pre; background-color: rgb(251, 251, 251);&quot;&gt;,&lt;/span&gt;&lt;span style=&quot;background-color: rgb(255, 255, 255); color: rgb(59, 59, 59); font-family: Consolas, &amp;quot;Courier New&amp;quot;, monospace; font-size: 14px; white-space: pre;&quot;&gt; &lt;/span&gt;&lt;span style=&quot;font-family: Consolas, &amp;quot;Courier New&amp;quot;, monospace; font-size: 14px; white-space: pre; color: rgb(163, 21, 21);&quot;&gt;&quot; y c = &quot;&lt;/span&gt;&lt;span style=&quot;background-color: rgb(255, 255, 255); color: rgb(59, 59, 59); font-family: Consolas, &amp;quot;Courier New&amp;quot;, monospace; font-size: 14px; white-space: pre;&quot;&gt; &lt;/span&gt;&lt;span style=&quot;font-family: Consolas, &amp;quot;Courier New&amp;quot;, monospace; font-size: 14px; white-space: pre; background-color: rgb(251, 251, 251);&quot;&gt;,&lt;/span&gt;&lt;span style=&quot;background-color: rgb(255, 255, 255); color: rgb(59, 59, 59); font-family: Consolas, &amp;quot;Courier New&amp;quot;, monospace; font-size: 14px; white-space: pre;&quot;&gt; c&lt;/span&gt;" style="shape=parallelogram;perimeter=parallelogramPerimeter;whiteSpace=wrap;html=1;fixedSize=1;" vertex="1" parent="1">
          <mxGeometry x="158" y="480" width="510" height="60" as="geometry" />
        </mxCell>
        <mxCell id="4WAHKactAMCXxuzaxDmH-11" value="mostrar&amp;nbsp;&lt;span style=&quot;color: rgb(163, 21, 21); background-color: rgb(255, 255, 255); font-family: Consolas, &amp;quot;Courier New&amp;quot;, monospace; font-size: 14px; white-space: pre;&quot;&gt;&quot;Permutamos: a =&amp;gt; b, b =&amp;gt; c, c =&amp;gt; a&quot;&lt;/span&gt;" style="shape=parallelogram;perimeter=parallelogramPerimeter;whiteSpace=wrap;html=1;fixedSize=1;" vertex="1" parent="1">
          <mxGeometry x="200" y="580" width="400" height="60" as="geometry" />
        </mxCell>
        <mxCell id="4WAHKactAMCXxuzaxDmH-12" value="mostrar&amp;nbsp;&lt;span style=&quot;font-family: Consolas, &amp;quot;Courier New&amp;quot;, monospace; font-size: 14px; white-space: pre; color: rgb(163, 21, 21);&quot;&gt;&quot;Los valores despues de la permutacion son: a = &quot;&lt;/span&gt;&lt;span style=&quot;background-color: rgb(255, 255, 255); color: rgb(59, 59, 59); font-family: Consolas, &amp;quot;Courier New&amp;quot;, monospace; font-size: 14px; white-space: pre;&quot;&gt; &lt;/span&gt;&lt;span style=&quot;font-family: Consolas, &amp;quot;Courier New&amp;quot;, monospace; font-size: 14px; white-space: pre; background-color: rgb(251, 251, 251);&quot;&gt;,&lt;/span&gt;&lt;span style=&quot;background-color: rgb(255, 255, 255); color: rgb(59, 59, 59); font-family: Consolas, &amp;quot;Courier New&amp;quot;, monospace; font-size: 14px; white-space: pre;&quot;&gt; a1 &lt;/span&gt;&lt;span style=&quot;font-family: Consolas, &amp;quot;Courier New&amp;quot;, monospace; font-size: 14px; white-space: pre; background-color: rgb(251, 251, 251);&quot;&gt;,&lt;/span&gt;&lt;span style=&quot;background-color: rgb(255, 255, 255); color: rgb(59, 59, 59); font-family: Consolas, &amp;quot;Courier New&amp;quot;, monospace; font-size: 14px; white-space: pre;&quot;&gt; &lt;/span&gt;&lt;span style=&quot;font-family: Consolas, &amp;quot;Courier New&amp;quot;, monospace; font-size: 14px; white-space: pre; color: rgb(163, 21, 21);&quot;&gt;&quot; b = &quot;&lt;/span&gt;&lt;span style=&quot;background-color: rgb(255, 255, 255); color: rgb(59, 59, 59); font-family: Consolas, &amp;quot;Courier New&amp;quot;, monospace; font-size: 14px; white-space: pre;&quot;&gt; &lt;/span&gt;&lt;span style=&quot;font-family: Consolas, &amp;quot;Courier New&amp;quot;, monospace; font-size: 14px; white-space: pre; background-color: rgb(251, 251, 251);&quot;&gt;,&lt;/span&gt;&lt;span style=&quot;background-color: rgb(255, 255, 255); color: rgb(59, 59, 59); font-family: Consolas, &amp;quot;Courier New&amp;quot;, monospace; font-size: 14px; white-space: pre;&quot;&gt; b1 &lt;/span&gt;&lt;span style=&quot;font-family: Consolas, &amp;quot;Courier New&amp;quot;, monospace; font-size: 14px; white-space: pre; background-color: rgb(251, 251, 251);&quot;&gt;,&lt;/span&gt;&lt;span style=&quot;background-color: rgb(255, 255, 255); color: rgb(59, 59, 59); font-family: Consolas, &amp;quot;Courier New&amp;quot;, monospace; font-size: 14px; white-space: pre;&quot;&gt; &lt;/span&gt;&lt;span style=&quot;font-family: Consolas, &amp;quot;Courier New&amp;quot;, monospace; font-size: 14px; white-space: pre; color: rgb(163, 21, 21);&quot;&gt;&quot; c = &quot;&lt;/span&gt;&lt;span style=&quot;background-color: rgb(255, 255, 255); color: rgb(59, 59, 59); font-family: Consolas, &amp;quot;Courier New&amp;quot;, monospace; font-size: 14px; white-space: pre;&quot;&gt; &lt;/span&gt;&lt;span style=&quot;font-family: Consolas, &amp;quot;Courier New&amp;quot;, monospace; font-size: 14px; white-space: pre; background-color: rgb(251, 251, 251);&quot;&gt;,&lt;/span&gt;&lt;span style=&quot;background-color: rgb(255, 255, 255); color: rgb(59, 59, 59); font-family: Consolas, &amp;quot;Courier New&amp;quot;, monospace; font-size: 14px; white-space: pre;&quot;&gt; c1&lt;/span&gt;" style="shape=parallelogram;perimeter=parallelogramPerimeter;whiteSpace=wrap;html=1;fixedSize=1;" vertex="1" parent="1">
          <mxGeometry x="80" y="680" width="720" height="60" as="geometry" />
        </mxCell>
        <mxCell id="4WAHKactAMCXxuzaxDmH-14" style="edgeStyle=orthogonalEdgeStyle;rounded=0;orthogonalLoop=1;jettySize=auto;html=1;exitX=0.5;exitY=1;exitDx=0;exitDy=0;entryX=0.525;entryY=0.043;entryDx=0;entryDy=0;entryPerimeter=0;" edge="1" parent="1" source="4WAHKactAMCXxuzaxDmH-10" target="4WAHKactAMCXxuzaxDmH-11">
          <mxGeometry relative="1" as="geometry" />
        </mxCell>
        <mxCell id="4WAHKactAMCXxuzaxDmH-15" style="edgeStyle=orthogonalEdgeStyle;rounded=0;orthogonalLoop=1;jettySize=auto;html=1;exitX=0.5;exitY=1;exitDx=0;exitDy=0;entryX=0.452;entryY=0.003;entryDx=0;entryDy=0;entryPerimeter=0;" edge="1" parent="1" source="4WAHKactAMCXxuzaxDmH-11" target="4WAHKactAMCXxuzaxDmH-12">
          <mxGeometry relative="1" as="geometry" />
        </mxCell>
      </root>
    </mxGraphModel>
  </diagram>
</mxfile>
